# xmcd
#
# Track frame offsets: 
#        150
#        16516
#        29640
#        52147
#        65367
#        85995
#        103834
#        119805
#        137243
#        154792
#        170558
#
# Disc length: 2543 seconds
#
# Revision: 0
# Processed by: cddbd v1.5.2PL0 Copyright (c) Steve Scherf et al.
# Submitted via: ExactAudioCopy v0.99pb5
#
DISCID=9b09ed0b
DTITLE=Mike McCarthy - Calm Wind
DYEAR=2006
DGENRE=Acoustic
TTITLE0=Prepared for This
TTITLE1=Bitterness Sweet
TTITLE2=Calm Wind
TTITLE3=Fire Escape
TTITLE4=Camoflage
TTITLE5=All She Does is Cry
TTITLE6=Angeline
TTITLE7=Waiting on the Tide
TTITLE8=Fought and Failed
TTITLE9=Every Last Piece
TTITLE10=In a Name
EXTD=
EXTT0=
EXTT1=
EXTT2=
EXTT3=
EXTT4=
EXTT5=
EXTT6=
EXTT7=
EXTT8=
EXTT9=
EXTT10=
PLAYORDER=
